<svg xmlns="http://www.w3.org/2000/svg" viewBox="0 0 1080 1080" width="1080" height="1080" preserveAspectRatio="xMidYMid meet" style="width: 100%; height: 100%;"><defs><clippath id="animationMask_7lyw7dS6H2"><rect width="1080" height="1080" x="0" y="0"></rect></clippath><clippath id="cp_TjNO4u4U"><path d="M0,0 L1920,0 L1920,1080 L0,1080z"></path></clippath><path d=" M0.497,0.397 C0,0 0,0 0,1 C0,1 0,1 0,1 C1,1 1,1 1,1 C1,1 1,1 1,1 C1,0 1,0 0,0" fill-opacity="1"></path><clippath id="Q9PU4ZwXl5"></clippath><clippath id="cp_LVUYbt89"><path d="M0,0 L1920,0 L1920,1080 L0,1080z"></path></clippath><path></path><clippath id="VvA6t89psX"></clippath></defs><g clip-path="url(#animationMask_7lyw7dS6H2)"><g clip-path="url(#cp_LVUYbt89)" style="display: none;"><g style="user-select: none; display: none;"><g><path style="display: none;"></path></g><g><path style="display: none;"></path></g><g><path style="display: none;"></path></g></g><g style="user-select: none; display: none;"><g><path style="display: none;"></path><g></g></g></g><g style="display: none;"><g><path style="display: none;"></path></g></g><g style="user-select: none; display: none;"><g><path style="display: none;"></path></g><g><path style="display: none;"></path><g></g></g></g><g style="display: none;"><g><path style="display: none;"></path></g></g><g style="user-select: none; display: none;"><g><path style="display: none;"></path></g></g><g style="display: none;"><g><path style="display: none;"></path></g><g><path style="display: none;"></path></g><g><path style="display: none;"></path></g><g><path style="display: none;"></path></g><g><path style="display: none;"></path></g></g><g style="user-select: none; display: none;"><g><path style="display: none;"></path></g><g><path style="display: none;"></path></g><g><path style="display: none;"></path></g><g><path style="display: none;"></path></g></g><g style="user-select: none; display: none;"><g><path style="display: none;"></path><g></g></g></g><g style="user-select: none; display: none;"><g><path style="display: none;"></path><g></g></g></g><g style="display: none;"><g><path style="display: none;"></path></g><g><path style="display: none;"></path></g><g><path style="display: none;"></path></g><g><path style="display: none;"></path></g><g><path style="display: none;"></path></g></g><g style="user-select: none; display: none;"><g><path style="display: none;"></path></g><g><path style="display: none;"></path></g><g><path style="display: none;"></path></g><g><path style="display: none;"></path></g></g><g style="user-select: none; display: none;"><g><path style="display: none;"></path><g></g></g></g><g style="user-select: none; display: none;"><g><path style="display: none;"></path><path stroke-linecap="butt" stroke-linejoin="miter" fill-opacity="0" stroke-miterlimit="4" style="display: none;"></path></g></g><g style="user-select: none; display: none;"><g><path style="display: none;"></path><g></g></g><g><path style="display: none;"></path></g><g><path style="display: none;"></path></g><g><path style="display: none;"></path></g><g><path style="display: none;"></path></g><g><path style="display: none;"></path><g></g></g></g><g style="user-select: none; display: none;"><g><path stroke-linecap="round" stroke-linejoin="miter" fill-opacity="0" stroke-miterlimit="4" style="display: none;"></path></g></g><g style="user-select: none; display: none;"><g><path style="display: none;"></path></g><g><path style="display: none;"></path></g></g><g style="user-select: none; display: none;"><g><path style="display: none;"></path></g></g><g style="user-select: none; display: none;"><g><path style="display: none;"></path><path stroke-linecap="butt" stroke-linejoin="miter" fill-opacity="0" stroke-miterlimit="4" style="display: none;"></path></g></g><g style="user-select: none; display: none;"><g><path style="display: none;"></path><path stroke-linecap="butt" stroke-linejoin="miter" fill-opacity="0" stroke-miterlimit="4" style="display: none;"></path></g></g><g style="display: none;"></g><g style="user-select: none; display: none;"><g><path style="display: none;"></path><g></g></g></g><g style="user-select: none; display: none;"><g><path style="display: none;"></path></g><g><path style="display: none;"></path><g></g></g></g><g style="user-select: none; display: none;"><g><path style="display: none;"></path></g></g><g style="user-select: none; display: none;"><g><path style="display: none;"></path><g></g></g></g><g style="user-select: none; display: none;"><g><path style="display: none;"></path></g><g><path style="display: none;"></path><g></g></g></g><g style="user-select: none; display: none;"><g><path style="display: none;"></path></g></g><g style="user-select: none; display: none;"><g><path style="display: none;"></path></g></g><g style="display: none;"></g><g style="user-select: none; display: none;"><g><path style="display: none;"></path></g></g><g style="user-select: none; display: none;"><g><path style="display: none;"></path><g></g></g></g><g style="user-select: none; display: none;"><g><path style="display: none;"></path></g><g><path style="display: none;"></path><g></g></g></g><g style="display: none;"><g><path style="display: none;"></path></g></g><g style="user-select: none; display: none;"><g><path style="display: none;"></path></g></g><g style="user-select: none; display: none;"><g><path style="display: none;"></path></g><g><path style="display: none;"></path><g></g></g></g><g style="display: none;"><g><path style="display: none;"></path></g></g><g style="user-select: none; display: none;"><g><path style="display: none;"></path></g></g><g style="user-select: none; display: none;"><g><path style="display: none;"></path></g></g><g style="user-select: none; display: none;"><g><path style="display: none;"></path></g></g><g style="display: none;"><g><path style="display: none;"></path></g><g><path style="display: none;"></path></g><g><path style="display: none;"></path></g><g><path style="display: none;"></path></g></g><g style="display: none;"><g><path style="display: none;"></path></g></g><g style="user-select: none; display: none;"><g><path style="display: none;"></path></g><g><path style="display: none;"></path></g><g><path style="display: none;"></path></g><g><path style="display: none;"></path></g><g><path style="display: none;"></path></g></g><g style="user-select: none; display: none;"><g><path style="display: none;"></path></g></g><g style="user-select: none; display: none;"><g><path style="display: none;"></path></g></g><g style="user-select: none; display: none;"><g><path style="display: none;"></path></g><g><path style="display: none;"></path><g></g></g></g><g style="display: none;"><g><path style="display: none;"></path></g></g><g style="user-select: none; display: none;"><g><path style="display: none;"></path></g></g><g style="display: none;"></g></g><g clip-path="url(#cp_TjNO4u4U)" transform="matrix(0.93,0,0,0.93,-352.80000000000007,21.799999999999955)" opacity="1"><g transform="matrix(0.98,0,0,0.98,685.3764,234.06088)" opacity="1" style="user-select: none;"><g opacity="1" transform="matrix(1,0,0,1,118.979,153.042)"><path fill="rgb(66,132,244)" fill-opacity="1" d="M0 0 M-117.914,-118.249 C-117.914,-118.249 -117.914,-56.848 -117.914,-56.848 C-117.914,-37.769999999999996 -118.277,-18.805999999999997 -115.065,0.065 C-111.396,21.634 -104.04799999999999,42.418 -93.945,61.802 C-73.255,101.482 -40.628,133.512 0.202,152.037 C41.033,133.512 73.66199999999999,101.482 94.356,61.802 C104.46199999999999,42.418 111.4,21.634 115.069,0.065 C118.278,-18.805999999999997 117.532,-37.769999999999996 117.532,-56.848 C117.532,-56.848 117.532,-118.249 117.532,-118.249 C117.532,-118.249 -0.191,-152.031 -0.191,-152.031 C-0.191,-152.031 -117.914,-118.249 -117.914,-118.249z"></path></g><g opacity="1" transform="matrix(1,0,0,1,119.26,143.899)"><path fill="rgb(58,114,211)" fill-opacity="1" d="M0 0 M76.498,-0.004 C76.498,42.249 42.251,76.502 -0.005,76.502 C-42.252,76.502 -76.497,42.249 -76.497,-0.004 C-76.497,-42.254 -42.252,-76.502 -0.005,-76.502 C42.251,-76.502 76.498,-42.254 76.498,-0.004z"></path></g><g opacity="1" transform="matrix(1,0,0,1,118.788,152.965)"><path fill="rgb(255,255,255)" fill-opacity="1" d="M0 0 M-29.594,-36.964 C-29.594,-53.788 -15.944999999999999,-67.437 0.88,-67.437 C17.695,-67.437 31.353,-53.788 31.353,-36.964 C31.353,-20.119 17.695,-6.486 0.88,-6.486 C-15.944999999999999,-6.486 -29.594,-20.119 -29.594,-36.964zM0 0 M0,7.408 C-31.556,7.988 -59.715,20.949 -59.715,36.877 C-59.715,36.877 -59.715,38.223 -59.715,38.223 C-59.715,38.223 -39.288,67.377 0,67.332 C40.212,67.28599999999999 59.715,39.16 59.715,39.16 C59.715,39.16 59.715,36.877 59.715,36.877 C59.715,20.949 31.557,7.988 0,7.408z"></path></g></g><g transform="matrix(1,0,0,1,835,871)" opacity="1" style="user-select: none;"><g opacity="1" transform="matrix(1,0,0,1,145.682,15.661)"><path fill="rgb(237,237,237)" fill-opacity="1" d="M0 0 M-7661.682,-7536.661 C-7661.682,-7536.661 6738.318,-7536.661 6738.318,-7536.661 C6738.318,-7536.661 6738.318,6863.339 6738.318,6863.339 C6738.318,6863.339 -7661.682,6863.339 -7661.682,6863.339 C-7661.682,6863.339 -7661.682,-7536.661 -7661.682,-7536.661zM0 0 M-7661.682,6863.339 C-7661.682,6863.339 6738.318,6863.339 6738.318,6863.339 C6738.318,6863.339 6738.318,-7536.661 6738.318,-7536.661 C6738.318,-7536.661 -7661.682,-7536.661 -7661.682,-7536.661 C-7661.682,-7536.661 -7661.682,6863.339 -7661.682,6863.339zM0 0 M145.401,-0.002 C145.401,8.219 80.297,14.88 -0.004,14.88 C-80.302,14.88 -145.401,8.219 -145.401,-0.002 C-145.401,-8.219000000000001 -80.302,-14.88 -0.004,-14.88 C80.297,-14.88 145.401,-8.219000000000001 145.401,-0.002z"></path><g opacity="1" transform="matrix(1,0,0,1,0,0)"></g></g></g><g style="display: none;"><g><path style="display: none;"></path></g></g><g transform="matrix(0.9925795592441642,0.12159695132140749,-0.12159695132140749,0.9925795592441642,871.3846800938056,447.893825109801)" opacity="1" style="user-select: none; display: block;"><g opacity="1" transform="matrix(1,0,0,1,21.968,31.657)"><path fill="rgb(68,68,68)" fill-opacity="1" d="M0 0 M15.909,19.647 C15.909,19.647 4.396,24.767 4.396,24.767 C4.396,24.767 -15.909,-19.642 -15.909,-19.642 C-15.909,-19.642 -4.393,-24.767 -4.393,-24.767 C-4.393,-24.767 15.909,19.647 15.909,19.647z" style="display: block;"></path></g><g opacity="1" transform="matrix(1,0,0,1,21.968,31.309)"><path fill="rgb(68,68,68)" fill-opacity="1" d="M0 0 M-7568.968,-7117.309 C-7568.968,-7117.309 6831.032,-7117.309 6831.032,-7117.309 C6831.032,-7117.309 6831.032,7282.691 6831.032,7282.691 C6831.032,7282.691 -7568.968,7282.691 -7568.968,7282.691 C-7568.968,7282.691 -7568.968,-7117.309 -7568.968,-7117.309zM0 0 M-7568.968,7282.691 C-7568.968,7282.691 6831.032,7282.691 6831.032,7282.691 C6831.032,7282.691 6831.032,-7117.309 6831.032,-7117.309 C6831.032,-7117.309 -7568.968,-7117.309 -7568.968,-7117.309 C-7568.968,-7117.309 -7568.968,7282.691 -7568.968,7282.691zM0 0 M4.398,30.234 C2.4559999999999995,30.234 0.599,29.124 -0.26,27.244 C-0.26,27.244 -20.564,-17.165 -20.564,-17.165 C-21.13,-18.407 -21.18,-19.827 -20.697,-21.105 C-20.214,-22.383 -19.237,-23.413999999999998 -17.991,-23.97 C-17.991,-23.97 -6.475,-29.095 -6.475,-29.095 C-3.913,-30.233999999999998 -0.9029999999999999,-29.101 0.263,-26.547 C0.263,-26.547 20.563,17.867 20.563,17.867 C21.128999999999998,19.111 21.18,20.53 20.696,21.806 C20.21,23.086000000000002 19.237,24.115000000000002 17.987,24.672 C17.987,24.672 6.474,29.792 6.474,29.792 C5.798,30.093 5.090999999999999,30.234 4.398,30.234zM0 0 M-9.104,-16.72 C-9.104,-16.72 6.944,18.381 6.944,18.381 C6.944,18.381 9.104,17.419 9.104,17.419 C9.104,17.419 -6.941,-17.683 -6.941,-17.683 C-6.941,-17.683 -9.104,-16.72 -9.104,-16.72z" style="display: block;"></path><g opacity="1" transform="matrix(1,0,0,1,0,0)"></g></g></g><g style="display: none;"><g><path style="display: none;"></path></g></g><g transform="matrix(0.87756451687971,-0.06542567320006028,0.06542567320006028,0.87756451687971,864.846786832349,471.04560780325096)" opacity="1" style="user-select: none; display: block;"><g opacity="1" transform="matrix(1,0,0,1,17.027,31.333)"><path fill="rgb(239,175,58)" fill-opacity="1" d="M0 0 M-13.806,11.862 C-13.806,11.862 -16.777,-3.083 -16.777,-6.75 C-16.777,-10.417 -11.111,-26.083 -11.111,-26.083 C-11.111,-26.083 -9.943999999999999,-31.083000000000002 -7.444,-29.917 C-4.121,-28.643 -6.777,-22.917 -7.277,-22.25 C-7.777,-21.583 -9.165,-10.651 -9.165,-10.651 C-9.165,-10.651 -3.611,-19.583 -3.611,-19.583 C-3.611,-19.583 4.223,-26.917 4.223,-26.917 C4.223,-26.917 7.723,-28.416999999999998 7.389,-23.583 C7.412,-20.75 1.011,-15.739 1.011,-15.739 C1.011,-15.739 -2.227,-8.431 -2.227,-8.431 C-2.227,-8.431 2.399,-14.999 2.399,-14.999 C2.399,-14.999 9.389,-20.583 9.389,-20.583 C9.389,-20.583 14.556000000000001,-21.917 11.723,-15.583 C11.723,-15.583 5.637,-10.558 5.637,-10.558 C5.637,-10.558 3.786,-4.36 3.786,-4.36 C3.786,-4.36 9.741,-9.98 13.408,-10.558 C13.408,-10.558 16.777,-10.655000000000001 14.611,-6.488 C13.933,-5.1850000000000005 12.222,-5.236000000000001 11.373,-4.36 C9.506,-2.4350000000000005 8.505,-0.382 8.505,-0.382 C8.505,-0.382 10.056000000000001,6.25 5.556,11.917 C5.556,11.917 8.507,17.618 1.576,22.173 C-3.905,25.775 -10.342,22.011 -11.708,19.209 C-13.074,16.407 -13.806,11.862 -13.806,11.862z" style="display: block;"></path></g></g><g style="display: none;"><g><path style="display: none;"></path></g><g><path style="display: none;"></path></g><g><path style="display: none;"></path></g><g><path style="display: none;"></path></g><g><path style="display: none;"></path></g></g><g style="user-select: none; display: none;"><g><path style="display: none;"></path></g><g><path style="display: none;"></path></g><g><path style="display: none;"></path></g><g><path style="display: none;"></path></g></g><g transform="matrix(0.9567337697296081,-0.29096476394741216,0.29096476394741216,0.9567337697296081,867.6510677009088,505.3951376877586)" opacity="1" style="user-select: none;"><g opacity="1" transform="matrix(1,0,0,1,27.51,44.387)"><path fill="rgb(239,175,58)" fill-opacity="1" d="M0 0 M-7576.51,-7174.387 C-7576.51,-7174.387 6823.49,-7174.387 6823.49,-7174.387 C6823.49,-7174.387 6823.49,7225.613 6823.49,7225.613 C6823.49,7225.613 -7576.51,7225.613 -7576.51,7225.613 C-7576.51,7225.613 -7576.51,-7174.387 -7576.51,-7174.387zM0 0 M-7576.51,7225.613 C-7576.51,7225.613 6823.49,7225.613 6823.49,7225.613 C6823.49,7225.613 6823.49,-7174.387 6823.49,-7174.387 C6823.49,-7174.387 -7576.51,-7174.387 -7576.51,-7174.387 C-7576.51,-7174.387 -7576.51,7225.613 -7576.51,7225.613zM0 0 M-21.814,-40.427 C-17.512,-43.436 -11.574,-42.367999999999995 -8.562,-38.071 C-8.562,-38.071 23.034,21.184 23.034,21.184 C27.168999999999997,27.082 25.727999999999998,35.199000000000005 19.816,39.328 C13.898,43.436 4.493,41.327 1.055,35.006 C-7.127000000000001,20.002000000000002 -24.171,-27.201 -24.171,-27.201 C-27.169999999999998,-31.5 -26.126,-37.428 -21.814,-40.427z"></path><g opacity="1" transform="matrix(1,0,0,1,0,0)"></g></g></g><g transform="matrix(0.9766133110792651,-0.21500335025946585,0.21500335025946585,0.9766133110792651,898.3026107094373,499.51377646032677)" opacity="1" style="user-select: none;"><g opacity="1" transform="matrix(1,0,0,1,44.421,41.991)"><path fill="rgb(239,175,58)" fill-opacity="1" d="M0 0 M-7620.421,-7174.991 C-7620.421,-7174.991 6779.579,-7174.991 6779.579,-7174.991 C6779.579,-7174.991 6779.579,7225.009 6779.579,7225.009 C6779.579,7225.009 -7620.421,7225.009 -7620.421,7225.009 C-7620.421,7225.009 -7620.421,-7174.991 -7620.421,-7174.991zM0 0 M-7620.421,7225.009 C-7620.421,7225.009 6779.579,7225.009 6779.579,7225.009 C6779.579,7225.009 6779.579,-7174.991 6779.579,-7174.991 C6779.579,-7174.991 -7620.421,-7174.991 -7620.421,-7174.991 C-7620.421,-7174.991 -7620.421,7225.009 -7620.421,7225.009zM0 0 M-38.278,37.934 C-43.183,34.302 -43.363,28.21 -39.737,23.305 C-39.737,23.305 13.992,-33.427 13.992,-33.427 C18.984,-40.162 28.478,-41.574 35.219,-36.592 C41.95,-31.598 43.363,-22.1 38.378,-15.37 C38.378,-15.37 -9.554,26.585 -21.317,36.208 C-26.038,40.074 -33.366,41.573 -38.278,37.934z"></path><g opacity="1" transform="matrix(1,0,0,1,0,0)"></g></g></g><g style="display: none;"><g><path style="display: none;"></path></g><g><path style="display: none;"></path></g><g><path style="display: none;"></path></g><g><path style="display: none;"></path></g><g><path style="display: none;"></path></g></g><g transform="matrix(0.9672883417736131,-0.25367945101811884,0.25367945101811884,0.9672883417736131,522.7039235296843,325.04683601584475)" opacity="1" style="user-select: none; display: none;"><g opacity="1" transform="matrix(1,0,0,1,297.681,429.153)"><path fill="rgb(211,170,94)" fill-opacity="1" d="M0 0 M-0.132,-6.2 C-0.132,-6.2 -0.7150000000000001,-2.678 -1.179,0.075 C-0.13200000000000012,0.342 5.962000000000001,2.6160000000000005 6.264,4.775 C6.566,6.934 5.102,7.755 2.721,6.895 C0.3410000000000002,6.034999999999999 -6.567,4.236 -6.567,4.236 C-6.567,4.236 -5.813,-4.238 -5.813,-4.238 C-5.813,-4.238 -0.132,-7.755 -0.132,-7.755 C-0.132,-7.755 -0.132,-6.2 -0.132,-6.2z" style="display: none;"></path></g><g opacity="1" transform="matrix(1,0,0,1,299.807,424.725)"><path fill="rgb(211,170,94)" fill-opacity="1" d="M0 0 M-2.253,-4.578 C-2.253,-4.578 -1.891,-1.4770000000000003 -1.615,0.949 C-0.671,0.9199999999999999 5.001,1.3570000000000002 5.777,3.099 C6.553,4.84 5.52,5.885 3.312,5.737 C1.1029999999999998,5.59 -5.138,5.749 -5.138,5.749 C-5.138,5.749 -6.553,-1.555 -6.553,-1.555 C-6.553,-1.555 -2.629,-5.885 -2.629,-5.885 C-2.629,-5.885 -2.253,-4.578 -2.253,-4.578z" style="display: none;"></path></g><g opacity="1" transform="matrix(1,0,0,1,298.407,416.215)"><path fill="rgb(239,175,58)" fill-opacity="1" d="M0 0 M-11.116,3.144 C-12.638,10.759 -11.562000000000001,17.055999999999997 -9.557,19.72 C-8.011000000000001,21.154 -4.712,22.748 -2.165,23.549 C1.0699999999999998,24.566 3.38,24.909 3.513,23.625 C3.859,20.328 1.0829999999999993,20.595999999999997 -4.275,16.865 C-6.756,15.136999999999999 -6.239,10.054 -5.153,8.335 C-4.066999999999999,6.618 -1.462,7.126 -0.043,7.469 C3.151,8.243 -3.1390000000000002,16.218999999999998 1.013,17.112 C5.974,18.180999999999997 8.894,2.2689999999999997 8.203,-3.087 C8.203,-3.087 12.241,-6.861000000000001 14.145,-9.163 C16.266,-11.727 16.823,-16.898999999999997 11.853,-21.182 C6.883,-25.465 2.935,-22.451 0.938,-20.462 C-1.0590000000000002,-18.473 -6.1899999999999995,-9.836 -8.866,-3.968 C-11.541,1.9000000000000004 -10.547,1.151 -11.116,3.144z" style="display: none;"></path></g><g opacity="1" transform="matrix(1,0,0,1,300.336,432.412)"><path fill="rgb(239,175,58)" fill-opacity="1" d="M0 0 M-0.501,-0.586 C-1.5070000000000001,-0.822 -2.031,-1.3770000000000002 -2.289,-1.977 C-2.529,-0.5610000000000002 -2.548,0.99 -1.142,1.41 C0.7570000000000001,1.976 1.6870000000000003,0.15400000000000014 2.547,-1.634 C1.8810000000000002,-0.8839999999999999 0.9,-0.25699999999999995 -0.501,-0.586z" style="display: none;"></path></g></g><g transform="matrix(0.9963429714349021,0.08544403590812902,-0.08544403590812902,0.9963429714349021,970.8239698818261,424.7309998223942)" opacity="1" style="user-select: none;"><g opacity="1" transform="matrix(1,0,0,1,17.543,36.854)"><path fill="rgb(239,175,58)" fill-opacity="1" d="M0 0 M-7659.543,-7111.854 C-7659.543,-7111.854 6740.457,-7111.854 6740.457,-7111.854 C6740.457,-7111.854 6740.457,7288.146 6740.457,7288.146 C6740.457,7288.146 -7659.543,7288.146 -7659.543,7288.146 C-7659.543,7288.146 -7659.543,-7111.854 -7659.543,-7111.854zM0 0 M-7659.543,7288.146 C-7659.543,7288.146 6740.457,7288.146 6740.457,7288.146 C6740.457,7288.146 6740.457,-7111.854 6740.457,-7111.854 C6740.457,-7111.854 -7659.543,-7111.854 -7659.543,-7111.854 C-7659.543,-7111.854 -7659.543,7288.146 -7659.543,7288.146zM0 0 M-16.498,35.263 C-16.498,36.114999999999995 -16.245,23.595 -16.245,23.595 C-16.245,23.595 -16.245,-19.74 -16.245,-19.74 C-16.245,-28.781 -8.917,-36.115 0.127,-36.115 C9.167,-36.115 16.498,-28.781 16.498,-19.74 C16.498,-19.74 16.498,23.595 16.498,23.595 C16.498,23.595 -16.072000000000003,35.684 -16.498,35.263z"></path><g opacity="1" transform="matrix(1,0,0,1,0,0)"></g></g></g><g transform="matrix(0.9854170275000756,0.17015663934420816,-0.17015663934420816,0.9854170275000756,523.3326562425677,503.8122840719642)" opacity="1" style="user-select: none;"><g opacity="1" transform="matrix(1.05867,0,0,1.05867,473.5,-212.5)"><path fill="rgb(68,68,68)" fill-opacity="1" d="M0 0 M0,-23.6775 C13.067612249999998,-23.6775 23.6775,-13.067612249999998 23.6775,0 C23.6775,13.067612249999998 13.067612249999998,23.6775 0,23.6775 C-13.067612249999998,23.6775 -23.6775,13.067612249999998 -23.6775,0 C-23.6775,-13.067612249999998 -13.067612249999998,-23.6775 0,-23.6775z"></path><path stroke-linecap="butt" stroke-linejoin="miter" fill-opacity="0" stroke-miterlimit="4" stroke="rgb(255,255,255)" stroke-opacity="1" stroke-width="0" d="M0 0 M0,-23.6775 C13.067612249999998,-23.6775 23.6775,-13.067612249999998 23.6775,0 C23.6775,13.067612249999998 13.067612249999998,23.6775 0,23.6775 C-13.067612249999998,23.6775 -23.6775,13.067612249999998 -23.6775,0 C-23.6775,-13.067612249999998 -13.067612249999998,-23.6775 0,-23.6775z"></path></g></g><g transform="matrix(0.9860078911066755,0.16669864629134346,-0.16669864629134346,0.9860078911066755,874.9985772226073,233.8869701490122)" opacity="1" style="user-select: none;"><g opacity="1" transform="matrix(1,0,0,1,133.641,157.467)"><path fill="rgb(239,175,58)" fill-opacity="1" d="M0 0 M-7644.641,-7061.467 C-7644.641,-7061.467 6755.359,-7061.467 6755.359,-7061.467 C6755.359,-7061.467 6755.359,7338.533 6755.359,7338.533 C6755.359,7338.533 -7644.641,7338.533 -7644.641,7338.533 C-7644.641,7338.533 -7644.641,-7061.467 -7644.641,-7061.467zM0 0 M-7644.641,7338.533 C-7644.641,7338.533 6755.359,7338.533 6755.359,7338.533 C6755.359,7338.533 6755.359,-7061.467 6755.359,-7061.467 C6755.359,-7061.467 -7644.641,-7061.467 -7644.641,-7061.467 C-7644.641,-7061.467 -7644.641,7338.533 -7644.641,7338.533zM0 0 M55.332,-3.113 C59.138,14.618000000000002 53.686,32.17 42.243,44.521 C35.019000000000005,52.314 25.418,58.037 14.238,60.431 C-14.666,66.626 -43.114,48.221000000000004 -49.308,19.327 C-49.308,19.327 -52.944,3.107 -52.944,3.107 C-59.138000000000005,-25.786 -40.734,-54.24 -11.847,-60.432 C17.064,-66.626 45.508,-48.229 51.7,-19.328 C51.7,-19.328 55.332,-3.113 55.332,-3.113z"></path><g opacity="1" transform="matrix(1,0,0,1,0,0)"></g></g><g opacity="1" transform="matrix(1,0,0,1,149.15,161.527)"><path fill="rgb(237,160,40)" fill-opacity="1" d="M0 0 M26.37,-9.473 C30.165,8.252 24.721,25.802999999999997 13.278,38.159 C6.053000000000001,45.947 -3.5470000000000006,51.668 -14.727,54.064 C-18.28,54.826 -20.409,55.786 -21.348,56.826 C-9.431,60.118 37.980000000000004,55.617000000000004 41.387,4.286 C41.387,4.286 33.998,-30.759 33.998,-30.759 C21.991999999999997,-62.565 -15.235999999999999,-61.724999999999994 -12.078,-51.992 C-11.633999999999999,-50.622 16.543,-54.59 22.735,-25.688 C22.735,-25.688 26.37,-9.473 26.37,-9.473z"></path></g><g opacity="1" transform="matrix(1,0,0,1,154.535,137.09)"><path fill="rgb(68,68,68)" fill-opacity="1" d="M0 0 M-19.492,-8.558 C-7.6960000000000015,20.283 24.484,26.312 24.484,26.312 C24.484,26.312 1.3819999999999997,11.343000000000002 -5.65,-11.318 C-10.302,-26.311 -24.484,-20.774 -19.492,-8.558z"></path></g><g opacity="1" transform="matrix(1,0,0,1,117.925,130.895)"><path fill="rgb(68,68,68)" fill-opacity="1" d="M0 0 M35.549,-32.825 C30.659,-4.107000000000003 8.811000000000003,20.127000000000002 -21.423,26.605 C-27.191,27.842 -32.694,28.241 -38.344,28.107 C-43.800000000000004,-8.893 -12.997,-47.277 35.549,-32.825z"></path></g><g opacity="1" transform="matrix(1,0,0,1,151.679,124.54)"><path fill="rgb(68,68,68)" fill-opacity="1" d="M0 0 M37.399,28.006 C37.083,28.115000000000002 36.203,28.733 35.706,28.37 C31.762000000000004,28.347 29.992,27.891 26.177,27.241 C-2.2669999999999995,22.406 -25.787,2.6519999999999975 -32.199,-27.28 C-0.028999999999996362,-37.179 36.148,-11.893999999999998 37.399,28.006z"></path></g><g opacity="1" transform="matrix(1,0,0,1,188.896,155.808)"><path fill="rgb(237,160,40)" fill-opacity="1" d="M0 0 M-7699.896,-7059.808 C-7699.896,-7059.808 6700.104,-7059.808 6700.104,-7059.808 C6700.104,-7059.808 6700.104,7340.192 6700.104,7340.192 C6700.104,7340.192 -7699.896,7340.192 -7699.896,7340.192 C-7699.896,7340.192 -7699.896,-7059.808 -7699.896,-7059.808zM0 0 M-7699.896,7340.192 C-7699.896,7340.192 6700.104,7340.192 6700.104,7340.192 C6700.104,7340.192 6700.104,-7059.808 6700.104,-7059.808 C6700.104,-7059.808 -7699.896,-7059.808 -7699.896,-7059.808 C-7699.896,-7059.808 -7699.896,7340.192 -7699.896,7340.192zM0 0 M10.867,-2.446 C12.22,3.5609999999999995 8.448,9.52 2.436,10.869 C-3.5620000000000003,12.217 -9.52,8.443999999999999 -10.873,2.439 C-12.219,-3.559 -8.448,-9.517000000000001 -2.447,-10.867 C3.561,-12.216000000000001 9.514000000000001,-8.442 10.867,-2.446z"></path><g opacity="1" transform="matrix(1,0,0,1,0,0)"></g></g></g><g transform="matrix(0.9982356089772972,-0.05937734390931014,0.05937734390931014,0.9982356089772972,552.7715926417935,608.6118196624743)" opacity="1" style="user-select: none;"><g opacity="1" transform="matrix(1,0,0,1,0,0)"><path stroke-linecap="round" stroke-linejoin="miter" fill-opacity="0" stroke-miterlimit="4" stroke="rgb(239,91,91)" stroke-opacity="1" stroke-width="3" d="M0 0 M412.25,-142.375 C412.25,-142.375 416.514254166544,-141.10404284528641 423.014254166544,-141.10404284528641 C429.519254166544,-141.10404284528641 434.625,-142.5 434.5,-142.5"></path></g></g><g transform="matrix(0.16628377027164706,-0.013975143800552217,0,0,953.6013147079937,445.2680570478418)" opacity="1" style="user-select: none;"><g opacity="1" transform="matrix(1,0,0,1,77.531,65.231)"><path fill="rgb(239,91,91)" fill-opacity="1" d="M0 0 M0.64,-64.226 C77.281,-63.483 76.869,-25.162 76.869,-25.162 C76.869,-25.162 76.001,64.98100000000001 -0.661,64.239 C-77.281,63.43300000000001 -76.414,-26.681 -76.414,-26.681 C-76.414,-26.681 -76.041,-64.981 0.64,-64.226z"></path></g><g opacity="1" transform="matrix(1,0,0,1,77.635,72.004)"><path fill="rgb(48,43,43)" fill-opacity="1" d="M0 0 M76.765,-31.935 C76.536,-7.346 42.051,33.453 -0.268,33.03 C-42.629,32.597 -76.765,-8.824000000000002 -76.518,-33.453 C-76.518,-33.453 76.765,-31.935 76.765,-31.935z"></path></g></g><g style="user-select: none; display: none;" transform="matrix(0.16658342843994015,-0.00977539099961534,0.0097830065136679,0.16671320518649244,954.8723961533303,443.4512411928406)" opacity="1"><g opacity="1" transform="matrix(1,0,0,1,76.911,9.203)"><path style="display: none;" fill="rgb(255,255,255)" fill-opacity="1" d="M0 0 M-72.935,-7.97 C-72.97500000000001,-2.6189999999999998 -72.379,-7.238 -69.444,-0.884 C-69.444,-0.884 70.039,2.137 70.039,2.137 C72.642,-3.65 75.17699999999999,-2.7379999999999995 75.22,-7.677 C75.22,-7.677 -72.935,-7.97 -72.935,-7.97z"></path></g></g><g transform="matrix(0.8853299929287952,-0.09105385011464077,0.11253846643382567,1.0942280811479494,600.9440232596319,587.5065668183586)" opacity="1" style="user-select: none;"><g opacity="1" transform="matrix(1,0,0,1,404.028,-123.208)"><path fill="rgb(68,68,68)" fill-opacity="1" d="M0 0 M-0.24280604819760973,-4.160111565728812 C5.785984614441896,-4.035454979391495 8.144968015932001,1.2730245568912752 6.998764514287253,2.881077990199835 C5.961192057103466,4.4300845840104515 3.7124192059256456,-1.480887524557346 -0.3506028497908098,-1.484506669620103 C-4.229482037457589,-1.4888828254456543 -6.169075337406042,4.174096331789681 -7.248879339285753,2.440183113737004 C-8.328683341165465,0.706269895684327 -5.097491284061999,-4.2574690767265695 -0.24280604819760973,-4.160111565728812z"></path><path stroke-linecap="butt" stroke-linejoin="miter" fill-opacity="0" stroke-miterlimit="4" stroke="rgb(255,255,255)" stroke-opacity="1" stroke-width="0" d="M0 0 M-0.24280604819760973,-4.160111565728812 C5.785984614441896,-4.035454979391495 8.144968015932001,1.2730245568912752 6.998764514287253,2.881077990199835 C5.961192057103466,4.4300845840104515 3.7124192059256456,-1.480887524557346 -0.3506028497908098,-1.484506669620103 C-4.229482037457589,-1.4888828254456543 -6.169075337406042,4.174096331789681 -7.248879339285753,2.440183113737004 C-8.328683341165465,0.706269895684327 -5.097491284061999,-4.2574690767265695 -0.24280604819760973,-4.160111565728812z"></path></g></g><g transform="matrix(0.8853299929287952,-0.09105385011464077,0.11253846643382567,1.0942280811479494,638.441682084183,584.4232334472227)" opacity="1" style="user-select: none;"><g opacity="1" transform="matrix(1,0,0,1,404.028,-123.208)"><path fill="rgb(68,68,68)" fill-opacity="1" d="M0 0 M-0.13531051988084075,-4.210452781454622 C5.810776716923405,-4.026560102928663 8.150267091271559,1.2934638474867173 7.0615964075991675,2.834521828287995 C5.908390556398574,4.401885933096369 3.6372858877183267,-1.5511002728065033 -0.24310732147404085,-1.534847885345914 C-4.326757920476637,-1.5136749279271626 -5.879140215255883,3.9256075489025015 -7.045621949475525,2.215729422568539 C-8.248629452999984,0.49146809174148776 -4.987535470766148,-4.357962255487492 -0.13531051988084075,-4.210452781454622z"></path><path stroke-linecap="butt" stroke-linejoin="miter" fill-opacity="0" stroke-miterlimit="4" stroke="rgb(255,255,255)" stroke-opacity="1" stroke-width="0" d="M0 0 M-0.13531051988084075,-4.210452781454622 C5.810776716923405,-4.026560102928663 8.150267091271559,1.2934638474867173 7.0615964075991675,2.834521828287995 C5.908390556398574,4.401885933096369 3.6372858877183267,-1.5511002728065033 -0.24310732147404085,-1.534847885345914 C-4.326757920476637,-1.5136749279271626 -5.879140215255883,3.9256075489025015 -7.045621949475525,2.215729422568539 C-8.248629452999984,0.49146809174148776 -4.987535470766148,-4.357962255487492 -0.13531051988084075,-4.210452781454622z"></path></g></g><g></g><g transform="matrix(1,0,0,1,886,849)" opacity="1" style="user-select: none;"><g opacity="1" transform="matrix(1,0,0,1,32.528,17.8)"><path fill="rgb(239,91,91)" fill-opacity="1" d="M0 0 M-7599.528,-7516.8 C-7599.528,-7516.8 6800.472,-7516.8 6800.472,-7516.8 C6800.472,-7516.8 6800.472,6883.2 6800.472,6883.2 C6800.472,6883.2 -7599.528,6883.2 -7599.528,6883.2 C-7599.528,6883.2 -7599.528,-7516.8 -7599.528,-7516.8zM0 0 M-7599.528,6883.2 C-7599.528,6883.2 6800.472,6883.2 6800.472,6883.2 C6800.472,6883.2 6800.472,-7516.8 6800.472,-7516.8 C6800.472,-7516.8 -7599.528,-7516.8 -7599.528,-7516.8 C-7599.528,-7516.8 -7599.528,6883.2 -7599.528,6883.2zM0 0 M31.427,-17.534 C31.427,-17.534 31.427,17.534 31.427,17.534 C31.427,17.534 -23.963,17.534 -23.963,17.534 C-23.963,17.534 -31.427,3.644 -17.204,3.644 C4.614999999999998,3.644 6.961,-17.534 6.961,-17.534 C6.961,-17.534 31.427,-17.534 31.427,-17.534z"></path><g opacity="1" transform="matrix(1,0,0,1,0,0)"></g></g></g><g transform="matrix(1,0,0,1,885,870)" opacity="1" style="user-select: none;"><g opacity="1" transform="matrix(1,0,0,1,32.961,13.73)"><path fill="rgb(84,191,178)" fill-opacity="1" d="M0 0 M-31.993,2.589 C-31.993,2.589 31.993,2.589 31.993,2.589 C31.993,2.589 31.993,-2.589 31.993,-2.589 C31.993,-2.589 -31.993,-2.589 -31.993,-2.589 C-31.993,-2.589 -31.993,2.589 -31.993,2.589z"></path></g><g opacity="1" transform="matrix(1,0,0,1,15.354,5.903)"><path fill="rgb(84,191,178)" fill-opacity="1" d="M0 0 M-7581.354,-7525.903 C-7581.354,-7525.903 6818.646,-7525.903 6818.646,-7525.903 C6818.646,-7525.903 6818.646,6874.097 6818.646,6874.097 C6818.646,6874.097 -7581.354,6874.097 -7581.354,6874.097 C-7581.354,6874.097 -7581.354,-7525.903 -7581.354,-7525.903zM0 0 M-7581.354,6874.097 C-7581.354,6874.097 6818.646,6874.097 6818.646,6874.097 C6818.646,6874.097 6818.646,-7525.903 6818.646,-7525.903 C6818.646,-7525.903 -7581.354,-7525.903 -7581.354,-7525.903 C-7581.354,-7525.903 -7581.354,6874.097 -7581.354,6874.097zM0 0 M14.386,5.621 C14.386,-0.5939999999999994 7.9479999999999995,-5.621 -0.003,-5.621 C-7.941,-5.621 -14.386,-0.5939999999999994 -14.386,5.621 C-14.386,5.621 14.386,5.621 14.386,5.621z"></path><g opacity="1" transform="matrix(1,0,0,1,0,0)"></g></g></g><g transform="matrix(0.9996962734565503,0.024644691864298338,-0.024644691864298338,0.9996962734565503,929.0913391988182,596.742317116064)" opacity="1" style="user-select: none;"><g opacity="1" transform="matrix(1,0,0,1,37.786,126.856)"><path fill="rgb(66,66,66)" fill-opacity="1" d="M0 0 M-5.453,-126.282 C-21.254,-126.282 -31.771,-115.548 -30.952,-82.813 C-30.512,-65.237 -36.677,126.282 -36.677,126.282 C-36.677,126.282 -8.932,126.222 -8.932,126.222 C-4.346,82.679 3.4110000000000005,66.958 9.509,24.518 C16.673000000000002,-25.290999999999997 36.677,-126.282 36.677,-126.282 C36.677,-126.282 -5.453,-126.282 -5.453,-126.282z"></path></g></g><g transform="matrix(1,0,0,1,1031,849)" opacity="1" style="user-select: none;"><g opacity="1" transform="matrix(1,0,0,1,20.831,18.076)"><path fill="rgb(239,91,91)" fill-opacity="1" d="M0 0 M-7732.831,-7517.076 C-7732.831,-7517.076 6667.169,-7517.076 6667.169,-7517.076 C6667.169,-7517.076 6667.169,6882.924 6667.169,6882.924 C6667.169,6882.924 -7732.831,6882.924 -7732.831,6882.924 C-7732.831,6882.924 -7732.831,-7517.076 -7732.831,-7517.076zM0 0 M-7732.831,6882.924 C-7732.831,6882.924 6667.169,6882.924 6667.169,6882.924 C6667.169,6882.924 6667.169,-7517.076 6667.169,-7517.076 C6667.169,-7517.076 -7732.831,-7517.076 -7732.831,-7517.076 C-7732.831,-7517.076 -7732.831,6882.924 -7732.831,6882.924zM0 0 M-19.732,-17.257 C-19.732,-17.257 -16.723,17.257 -16.723,17.257 C-16.723,17.257 18.516,17.257 18.516,17.257 C18.516,17.257 19.732,5.574 15.873,5.574 C7.055999999999999,5.574 3.77,-16.969 3.77,-16.969 C3.77,-16.969 -19.732,-17.257 -19.732,-17.257z"></path><g opacity="1" transform="matrix(1,0,0,1,0,0)"></g></g></g><g transform="matrix(1,0,0,1,1034,870)" opacity="1" style="user-select: none;"><g opacity="1" transform="matrix(1,0,0,1,21.163,13.73)"><path fill="rgb(84,191,178)" fill-opacity="1" d="M0 0 M-20.035,2.589 C-20.035,2.589 20.035,2.589 20.035,2.589 C20.035,2.589 20.035,-2.589 20.035,-2.589 C20.035,-2.589 -20.035,-2.589 -20.035,-2.589 C-20.035,-2.589 -20.035,2.589 -20.035,2.589z"></path></g><g opacity="1" transform="matrix(1,0,0,1,25.399,6.233)"><path fill="rgb(84,191,178)" fill-opacity="1" d="M0 0 M-7740.398,-7526.232 C-7740.398,-7526.232 6659.602,-7526.232 6659.602,-7526.232 C6659.602,-7526.232 6659.602,6873.768 6659.602,6873.768 C6659.602,6873.768 -7740.398,6873.768 -7740.398,6873.768 C-7740.398,6873.768 -7740.398,-7526.232 -7740.398,-7526.232zM0 0 M-7740.398,6873.768 C-7740.398,6873.768 6659.602,6873.768 6659.602,6873.768 C6659.602,6873.768 6659.602,-7526.232 6659.602,-7526.232 C6659.602,-7526.232 -7740.398,-7526.232 -7740.398,-7526.232 C-7740.398,-7526.232 -7740.398,6873.768 -7740.398,6873.768zM0 0 M15.8,5.618 C15.8,-0.5899999999999999 8.725000000000001,-5.618 0.002,-5.618 C-8.729,-5.618 -15.8,-0.5899999999999999 -15.8,5.618 C-15.8,5.618 15.8,5.618 15.8,5.618z"></path><g opacity="1" transform="matrix(1,0,0,1,0,0)"></g></g></g><g transform="matrix(0.9995122491678897,0.0312292133001497,-0.0312292133001497,0.9995122491678897,961.8958498411331,594.452571597113)" opacity="1" style="user-select: none;"><g opacity="1" transform="matrix(1,0,0,1,53.507,130.227)"><path fill="rgb(117,117,117)" fill-opacity="1" d="M0 0 M-6.414,-17.349 C7.494,-21.226 16.494,-12.227000000000002 22.258,8.306 C30.5,37.666 33.391000000000005,59.38600000000001 52.487,125.48 C52.487,125.48 24.635,129.653 24.635,129.653 C-2.855999999999998,57.004999999999995 -5.205,54.324 -16.433,16.062 C-21.506,-1.2270000000000003 -20.695,-13.367 -6.414,-17.349z"></path></g></g><g transform="matrix(0.9999875216001424,-0.004995662519090397,0.004995662519090397,0.9999875216001424,956.6244901991148,596.3846002668297)" opacity="1" style="user-select: none;"><g opacity="1" transform="matrix(1,0,0,1,53.507,130.227)"><path fill="rgb(117,117,117)" fill-opacity="1" d="M0 0 M-23.672,-127.653 C-8.342,-130.727 9.494,-128.226 14.086,-98.849 C18.151,-72.842 20.903,-16.723 21.781,3.154 C22.493,19.273 19.494,26.273000000000003 7.721,29.257 C-3.8130000000000006,32.181000000000004 -13.556999999999999,24.08 -18.433,8.562 C-35.664,-46.304 -41.967,-76.82900000000001 -45.237,-92.403 C-48.507000000000005,-107.977 -40.613,-124.256 -23.672,-127.653z"></path></g></g><g></g><g transform="matrix(0.9999219792573728,-0.012491412971237594,0.012491412971237594,0.9999219792573728,-5224.813910752681,7220.279843017664)" opacity="1" style="user-select: none;"><g opacity="1" transform="matrix(1,0,0,1,6280.291,-6599.951)"><path fill="rgb(234,66,53)" fill-opacity="1" d="M0 0 M21.539,59.387 C21.539,59.387 -15.75,59.387 -15.75,59.387 C-24.287,59.387 -31.509,53.076 -32.658,44.616 C-32.658,44.616 -39.342,-4.689 -39.342,-4.689 C-39.982,-9.407 -38.617999999999995,-14.177000000000001 -35.586,-17.847 C-35.586,-17.847 -6.39,-53.19 -6.39,-53.19 C-3.151,-57.114999999999995 1.6760000000000002,-59.386 6.764,-59.386 C6.764,-59.386 22.852,-59.386 22.852,-59.386 C27.424,-59.386 31.801,-57.551 35.007,-54.296 C38.216,-51.037 39.983,-46.631 39.91,-42.06 C39.91,-42.06 38.597,42.59 38.597,42.59 C38.454,51.907000000000004 30.86,59.387 21.539,59.387z"></path></g></g><g transform="matrix(0.9567337697296081,-0.29096476394741216,0.29096476394741216,0.9567337697296081,867.0797847610389,504.70238823621526)" opacity="0" style="user-select: none; display: block;"><g opacity="1" transform="matrix(1,0,0,1,27.51,44.387)"><path fill="rgb(239,175,58)" fill-opacity="1" d="M0 0 M-7576.51,-7174.387 C-7576.51,-7174.387 6823.49,-7174.387 6823.49,-7174.387 C6823.49,-7174.387 6823.49,7225.613 6823.49,7225.613 C6823.49,7225.613 -7576.51,7225.613 -7576.51,7225.613 C-7576.51,7225.613 -7576.51,-7174.387 -7576.51,-7174.387zM0 0 M-7576.51,7225.613 C-7576.51,7225.613 6823.49,7225.613 6823.49,7225.613 C6823.49,7225.613 6823.49,-7174.387 6823.49,-7174.387 C6823.49,-7174.387 -7576.51,-7174.387 -7576.51,-7174.387 C-7576.51,-7174.387 -7576.51,7225.613 -7576.51,7225.613zM0 0 M-20.623,-39.937 C-16.682000000000002,-42.253 -11.600999999999999,-40.918 -9.282,-36.981 C-9.282,-36.981 23.034,21.184 23.034,21.184 C27.168999999999997,27.082 25.727999999999998,35.199000000000005 19.816,39.328 C13.898,43.436 4.493,41.327 1.055,35.006 C-7.127000000000001,20.002000000000002 -23.577,-28.619 -23.577,-28.619 C-25.885,-32.557 -24.566000000000003,-37.62 -20.623,-39.937z" style="display: block;"></path><g opacity="1" transform="matrix(1,0,0,1,0,0)"></g></g></g><g style="user-select: none; display: none;"><g><path style="display: none;"></path></g><g><path style="display: none;"></path><g></g></g></g><g style="display: none;"><g><path style="display: none;"></path></g></g><g style="user-select: none; display: none;"><g><path style="display: none;"></path></g></g><g transform="matrix(-0.2712327181128845,0.9625137986673733,-0.9625137986673733,-0.2712327181128845,1015.255171966344,539.1317962045845)" opacity="1" style="user-select: none; display: none;"><g opacity="1" transform="matrix(1,0,0,1,21.968,31.657)"><path fill="rgb(68,68,68)" fill-opacity="1" d="M0 0 M15.909,19.647 C15.909,19.647 4.396,24.767 4.396,24.767 C4.396,24.767 -15.909,-19.642 -15.909,-19.642 C-15.909,-19.642 -4.393,-24.767 -4.393,-24.767 C-4.393,-24.767 15.909,19.647 15.909,19.647z" style="display: none;"></path></g><g opacity="1" transform="matrix(1,0,0,1,21.968,31.309)"><path fill="rgb(68,68,68)" fill-opacity="1" d="M0 0 M-7568.968,-7117.309 C-7568.968,-7117.309 6831.032,-7117.309 6831.032,-7117.309 C6831.032,-7117.309 6831.032,7282.691 6831.032,7282.691 C6831.032,7282.691 -7568.968,7282.691 -7568.968,7282.691 C-7568.968,7282.691 -7568.968,-7117.309 -7568.968,-7117.309zM0 0 M-7568.968,7282.691 C-7568.968,7282.691 6831.032,7282.691 6831.032,7282.691 C6831.032,7282.691 6831.032,-7117.309 6831.032,-7117.309 C6831.032,-7117.309 -7568.968,-7117.309 -7568.968,-7117.309 C-7568.968,-7117.309 -7568.968,7282.691 -7568.968,7282.691zM0 0 M4.398,30.234 C2.4559999999999995,30.234 0.599,29.124 -0.26,27.244 C-0.26,27.244 -20.564,-17.165 -20.564,-17.165 C-21.13,-18.407 -21.18,-19.827 -20.697,-21.105 C-20.214,-22.383 -19.237,-23.413999999999998 -17.991,-23.97 C-17.991,-23.97 -6.475,-29.095 -6.475,-29.095 C-3.913,-30.233999999999998 -0.9029999999999999,-29.101 0.263,-26.547 C0.263,-26.547 20.563,17.867 20.563,17.867 C21.128999999999998,19.111 21.18,20.53 20.696,21.806 C20.21,23.086000000000002 19.237,24.115000000000002 17.987,24.672 C17.987,24.672 6.474,29.792 6.474,29.792 C5.798,30.093 5.090999999999999,30.234 4.398,30.234zM0 0 M-9.104,-16.72 C-9.104,-16.72 6.944,18.381 6.944,18.381 C6.944,18.381 9.104,17.419 9.104,17.419 C9.104,17.419 -6.941,-17.683 -6.941,-17.683 C-6.941,-17.683 -9.104,-16.72 -9.104,-16.72z" style="display: none;"></path><g opacity="1" transform="matrix(1,0,0,1,0,0)"></g></g></g><g style="display: none;"><g><path style="display: none;"></path></g></g><g transform="matrix(0.08965737949303301,0.8754207869947126,-0.8754207869947126,0.08965737949303301,956.3995137205907,466.75844017202763)" opacity="1" style="user-select: none; display: none;"><g opacity="1" transform="matrix(1,0,0,1,17.027,31.333)"><path fill="rgb(239,175,58)" fill-opacity="1" d="M0 0 M-13.806,11.862 C-13.806,11.862 -16.80528381425451,-3.08334076884644 -16.777,-6.75 C-16.673406270682293,-13.737451639709768 -9.522676406743923,-26.198861407789543 -9.522676406743923,-26.198861407789543 C-9.522676406743923,-26.198861407789543 -7.226368449642302,-30.33126392475372 -4.85756445552164,-28.95943954150406 C-1.6845027479551682,-27.408394469348472 -5.5151329616332845,-22.687662566345992 -6.068974439370779,-22.073481737544164 C-7.04605082438655,-21.129777434235017 -9.165,-10.651 -9.165,-10.651 C-9.165,-10.651 -3.5523877584123484,-19.374108697132378 -3.5523877584123484,-19.374108697132378 C-3.5523877584123484,-19.374108697132378 5.101161317275459,-25.304141049800254 5.101161317275459,-25.304141049800254 C5.101161317275459,-25.304141049800254 8.704755046593169,-26.236760920477924 7.668089685234227,-21.6147191429635 C7.2719440041132275,-18.87372673150226 0.3461599805958786,-14.977040859360526 0.3461599805958786,-14.977040859360526 C0.3461599805958786,-14.977040859360526 -2.227,-8.431 -2.227,-8.431 C-2.227,-8.431 2.719663484499886,-14.540325132691981 2.719663484499886,-14.540325132691981 C2.719663484499886,-14.540325132691981 10.277384382668654,-18.992631793665282 10.277384382668654,-18.992631793665282 C10.277384382668654,-18.992631793665282 15.47743896077332,-19.572169567647485 11.85078831741494,-13.816454300055886 C11.85078831741494,-13.816454300055886 5.247841977365706,-9.781387798963612 5.247841977365706,-9.781387798963612 C5.247841977365706,-9.781387798963612 3.786,-4.36 3.786,-4.36 C3.786,-4.36 10.299520139314893,-9.419776016452909 13.932784023517348,-9.45152355560985 C13.932784023517348,-9.45152355560985 17.208754128439274,-9.059861029815126 14.511495496839569,-5.338245912111991 C13.667541068623366,-4.174279601459444 12.018560998675417,-4.469951633203248 11.070397264361425,-3.7442306944832153 C8.985986740332809,-2.149435706683417 8.505,-0.382 8.505,-0.382 C8.505,-0.382 10.056000000000001,6.25 5.556,11.917 C5.556,11.917 8.507,17.618 1.576,22.173 C-3.905,25.775 -10.342,22.011 -11.708,19.209 C-13.074,16.407 -13.806,11.862 -13.806,11.862z" style="display: none;"></path></g></g><g transform="matrix(0.9999999894347829,0.00014536311173934252,-0.00014536311173934252,0.9999999894347829,-5269.286276871024,7143.094578364727)" opacity="1" style="user-select: none;"><g opacity="1" transform="matrix(1,0,0,1,6276.458,-6608.205)"><path fill="rgb(0,104,91)" fill-opacity="1" d="M0 0 M18.914,50.823 C18.914,50.823 13.795,50.823 13.795,50.823 C13.795,50.823 13.795,-31.907 13.795,-31.907 C13.795,-39.515 7.607,-45.706 0,-45.706 C-7.607,-45.706 -13.795,-39.515 -13.795,-31.907 C-13.795,-31.907 -13.795,50.823 -13.795,50.823 C-13.795,50.823 -18.914,50.823 -18.914,50.823 C-18.914,50.823 -18.914,-31.907 -18.914,-31.907 C-18.914,-42.337 -10.43,-50.824 0,-50.824 C10.43,-50.824 18.914,-42.337 18.914,-31.907 C18.914,-31.907 18.914,50.823 18.914,50.823z"></path></g></g><g transform="matrix(0.9999999894347829,0.00014536311173934252,-0.00014536311173934252,0.9999999894347829,-5274.63426838346,7143.035800963418)" opacity="1" style="user-select: none;"><g opacity="1" transform="matrix(1,0,0,1,6279.54,-6544.223)"><path fill="rgb(0,104,91)" fill-opacity="1" d="M0 0 M38.878,61.161 C38.878,61.161 -38.877,61.161 -38.877,61.161 C-38.877,61.161 -38.877,-61.157 -38.877,-61.157 C-38.877,-61.157 38.878,-61.16 38.878,-61.16 C38.878,-61.16 38.878,61.161 38.878,61.161z"></path></g></g><g style="display: none;"><g><path style="display: none;"></path></g><g><path style="display: none;"></path></g><g><path style="display: none;"></path></g><g><path style="display: none;"></path></g></g><g style="display: none;"><g><path style="display: none;"></path></g></g><g transform="matrix(-0.8181210086122342,0.5750460983845561,-0.5750460983845561,-0.8181210086122342,986.3511362817239,530.4559100985591)" opacity="1" style="user-select: none;"><g opacity="1" transform="matrix(1,0,0,1,14.304,19.007)"><path fill="rgb(239,175,58)" fill-opacity="1" d="M0 0 M8.163,-16.262 C9.132,-14.639000000000001 12.736,-4.369 18.164,8.086 C19.243000000000002,10.561 12.451,13.081 6.095,13.363 C-0.4640000000000004,13.654 -2.699,12.315000000000001 -3.725,11.621 C-4.442,11.147 -5.561,11.497 -5.045,12.644 C-4.329,14.233 -0.611,18.712 -1.357,20.151 C-2.248,21.869 -4.516,21.811 -6.438,19.733 C-8.626999999999999,17.366 -11.396999999999998,12.541 -9.261,6.518 C-5.950999999999999,-2.8129999999999997 -8.884,-10.504 -8.763,-14.423 C-8.642,-18.342 -4.074,-20.273999999999997 0.105,-20.627 C5.599,-21.090999999999998 7.194,-17.885 8.163,-16.262z"></path></g><g opacity="1" transform="matrix(1,0,0,1,10.044,36.271)"><path fill="rgb(239,175,58)" fill-opacity="1" d="M0 0 M4.451,-9.096 C4.451,-9.096 -2.356,-10.149 -1.417,-7.539 C-0.44300000000000006,-4.829 3.068,3.416 3.861,5.024 C5.478,8.303 7.183000000000001,10.541 10.345,13.505 C13.010000000000002,16.003 15.183,13.264000000000001 13.884,11.278 C12.176,8.666 10.357999999999999,5.6690000000000005 9.19,3.066 C7.680999999999999,-0.29600000000000026 4.451,-9.096 4.451,-9.096z"></path></g><g opacity="1" transform="matrix(1,0,0,1,15.556,39.478)"><path fill="rgb(239,175,58)" fill-opacity="1" d="M0 0 M4.223,-13.138 C4.223,-13.138 -1.144,-12.253 -0.142,-9.718 C-0.043999999999999984,-9.157 0.5619999999999999,-7.682 1.095,-6.397 C2.013,-4.1850000000000005 2.679,-2.889 3.897,-2.147 C5.295,-1.295 6.642,-2.032 7.809,-3.525 C9.173,-5.269 7.391,-7.986000000000001 6.818,-9.72 C6.303,-11.278 4.223,-13.138 4.223,-13.138z"></path></g><g opacity="1" transform="matrix(1,0,0,1,20.656,37.587)"><path fill="rgb(239,175,58)" fill-opacity="1" d="M0 0 M5.529,-14.114 C5.529,-14.114 -0.961,-13.021 0.211,-10.682 C0.7779999999999999,-9.549 1.7319999999999998,-7.276000000000001 2.062,-6.4 C2.747,-5.19 3.383,-3.453 4.151,-2.425 C5.229,-0.9819999999999998 7.984999999999999,-3.1199999999999997 8.001,-5.361 C8.008999999999999,-6.473 7.368,-8.758000000000001 6.763,-10.323 C6.286,-11.558 5.529,-14.114 5.529,-14.114z"></path></g><g opacity="1" transform="matrix(1,0,0,1,24.331,32.88)"><path fill="rgb(239,175,58)" fill-opacity="1" d="M0 0 M4.501,-13.908 C4.501,-13.908 -1.387,-10.687999999999999 -0.214,-8.815 C0.27,-8.067 1.165,-6.837 1.903,-5.984 C2.662,-5.107 3.665,-3.109 5.125,-1.5 C5.98,-0.558 8.004,-1.292 8.469,-3.128 C8.763,-4.29 8.732,-5.454000000000001 8.251,-6.581 C7.244,-8.938 4.501,-13.908 4.501,-13.908z"></path></g></g><g transform="matrix(-0.5316667457545746,0.8469536418593054,-0.8469536418593054,-0.5316667457545746,1042.0495591776557,562.730379198427)" opacity="1" style="user-select: none;"><g opacity="1" transform="matrix(1,0,0,1,24.538,44.617)"><path fill="rgb(239,175,58)" fill-opacity="1" d="M0 0 M-12.307,38.59 C-18.051000000000002,37.373000000000005 -20.354,33.003 -18.578,26.427 C-16.269,17.875999999999998 -5.469,-22.9 -2.571,-31.596 C-0.4750000000000001,-37.885 4.827,-42.697 12.259,-40.793 C19.234,-39.007 22.535,-32.996 20.603,-26.065 C16.017000000000003,-9.600000000000001 -1.765,30.839 -1.765,30.839 C-3.503,35.789 -5.819,39.965 -12.307,38.59z"></path></g></g><g transform="matrix(0.9474967625542321,0.3197653592077313,-0.3197653592077313,0.9474967625542321,994.7166031347105,484.07469945270515)" opacity="1" style="user-select: none;"><g opacity="1" transform="matrix(1,0,0,1,29.563,50.95)"><path fill="rgb(239,175,58)" fill-opacity="1" d="M0 0 M24.039,47.963 C18.868000000000002,51.217 11.780000000000001,49.594 8.531,44.432 C8.531,44.432 -24.692,-26.294 -24.692,-26.294 C-29.144,-33.395 -26.997999999999998,-42.744 -19.9,-47.206 C-12.796,-51.654 -3.439,-49.508 1.007,-42.411 C1.007,-42.411 23.728,16.408 28.393,30.874 C30.272000000000002,36.683 29.217000000000002,44.719 24.039,47.963z"></path></g></g><g transform="matrix(0.9925795592441642,0.12159695132140749,-0.12159695132140749,0.9925795592441642,871.3846800938056,447.893825109801)" opacity="1" style="user-select: none; display: block;"><g opacity="1" transform="matrix(1,0,0,1,21.968,31.657)"><path fill="rgb(68,68,68)" fill-opacity="1" d="M0 0 M15.909,19.647 C15.909,19.647 4.396,24.767 4.396,24.767 C4.396,24.767 -15.909,-19.642 -15.909,-19.642 C-15.909,-19.642 -4.393,-24.767 -4.393,-24.767 C-4.393,-24.767 15.909,19.647 15.909,19.647z" style="display: block;"></path></g><g opacity="1" transform="matrix(1,0,0,1,21.968,31.309)"><path fill="rgb(68,68,68)" fill-opacity="1" d="M0 0 M-7568.968,-7117.309 C-7568.968,-7117.309 6831.032,-7117.309 6831.032,-7117.309 C6831.032,-7117.309 6831.032,7282.691 6831.032,7282.691 C6831.032,7282.691 -7568.968,7282.691 -7568.968,7282.691 C-7568.968,7282.691 -7568.968,-7117.309 -7568.968,-7117.309zM0 0 M-7568.968,7282.691 C-7568.968,7282.691 6831.032,7282.691 6831.032,7282.691 C6831.032,7282.691 6831.032,-7117.309 6831.032,-7117.309 C6831.032,-7117.309 -7568.968,-7117.309 -7568.968,-7117.309 C-7568.968,-7117.309 -7568.968,7282.691 -7568.968,7282.691zM0 0 M4.398,30.234 C2.4559999999999995,30.234 0.599,29.124 -0.26,27.244 C-0.26,27.244 -20.564,-17.165 -20.564,-17.165 C-21.13,-18.407 -21.18,-19.827 -20.697,-21.105 C-20.214,-22.383 -19.237,-23.413999999999998 -17.991,-23.97 C-17.991,-23.97 -6.475,-29.095 -6.475,-29.095 C-3.913,-30.233999999999998 -0.9029999999999999,-29.101 0.263,-26.547 C0.263,-26.547 20.563,17.867 20.563,17.867 C21.128999999999998,19.111 21.18,20.53 20.696,21.806 C20.21,23.086000000000002 19.237,24.115000000000002 17.987,24.672 C17.987,24.672 6.474,29.792 6.474,29.792 C5.798,30.093 5.090999999999999,30.234 4.398,30.234zM0 0 M-9.104,-16.72 C-9.104,-16.72 6.944,18.381 6.944,18.381 C6.944,18.381 9.104,17.419 9.104,17.419 C9.104,17.419 -6.941,-17.683 -6.941,-17.683 C-6.941,-17.683 -9.104,-16.72 -9.104,-16.72z" style="display: block;"></path><g opacity="1" transform="matrix(1,0,0,1,0,0)"></g></g></g><g style="display: none;"><g><path style="display: none;"></path></g></g><g transform="matrix(0.87756451687971,-0.06542567320006028,0.06542567320006028,0.87756451687971,864.8465959055413,471.04596508255315)" opacity="1" style="user-select: none; display: block;"><g opacity="1" transform="matrix(1,0,0,1,17.027,31.333)"><path fill="rgb(239,175,58)" fill-opacity="1" d="M0 0 M-13.806,11.862 C-13.806,11.862 -16.777,-3.083 -16.777,-6.75 C-16.777,-10.417 -11.111,-26.083 -11.111,-26.083 C-11.111,-26.083 -9.943999999999999,-31.083000000000002 -7.444,-29.917 C-4.121,-28.643 -6.777,-22.917 -7.277,-22.25 C-7.777,-21.583 -9.165,-10.651 -9.165,-10.651 C-9.165,-10.651 -3.611,-19.583 -3.611,-19.583 C-3.611,-19.583 4.223,-26.917 4.223,-26.917 C4.223,-26.917 7.723,-28.416999999999998 7.389,-23.583 C7.412,-20.75 1.011,-15.739 1.011,-15.739 C1.011,-15.739 -2.227,-8.431 -2.227,-8.431 C-2.227,-8.431 2.399,-14.999 2.399,-14.999 C2.399,-14.999 9.389,-20.583 9.389,-20.583 C9.389,-20.583 14.556000000000001,-21.917 11.723,-15.583 C11.723,-15.583 5.637,-10.558 5.637,-10.558 C5.637,-10.558 3.786,-4.36 3.786,-4.36 C3.786,-4.36 9.741,-9.98 13.408,-10.558 C13.408,-10.558 16.777,-10.655000000000001 14.611,-6.488 C13.933,-5.1850000000000005 12.222,-5.236000000000001 11.373,-4.36 C9.506,-2.4350000000000005 8.505,-0.382 8.505,-0.382 C8.505,-0.382 10.056000000000001,6.25 5.556,11.917 C5.556,11.917 8.507,17.618 1.576,22.173 C-3.905,25.775 -10.342,22.011 -11.708,19.209 C-13.074,16.407 -13.806,11.862 -13.806,11.862z" style="display: block;"></path></g></g><g></g></g><g transform="matrix(1,0,0,1,540,540)" opacity="1" style="user-select: none;"><g opacity="1" transform="matrix(1,0,0,1,0,0)"><path fill="rgb(255,255,255)" fill-opacity="1" d="M0 0 M0,-666 C-367.822,-666 -666,-367.822 -666,0 C-666,367.822 -367.822,666 0,666 C367.822,666 666,367.822 666,0 C666,-367.822 367.822,-666 0,-666zM0 0 M960,-540 C960,-540 960,540 960,540 C960,540 -960,540 -960,540 C-960,540 -960,-540 -960,-540 C-960,-540 960,-540 960,-540z"></path></g></g></g></svg>